# xmcd
# 
# Track frame offsets:
#     150
#     25701
#     44723
#     73111
#     90377
#     104548
#     127405
#     143050
#     169300
#     190140
#     207399
#     224061
#     259142
#     292125
# 
# Disc length: 4260
# 
# Revision: 0
# Processed by: cddbd v1.5.2PL0 Copyright (c) Steve Scherf et al.
# Submitted via: fre:ac v1.0.31
# 
DISCID=eb10a20e
DTITLE=Various Artist - Sean Carney's Blues For A Cure Blues Cures Studio Jam, Vol. 9
DYEAR=2017
DGENRE=Blues
TTITLE0=Sean Carney and The Matt O'Ree Band - Giving It Up For Your Love
TTITLE1=Noah Wotherspoon, Matt O'Ree and Wendy DeWitt - It Takes Time
TTITLE2=Bart Walker, Noah Wotherspoon Band and Wendy DeWitt - Stop
TTITLE3=Matt O'Ree, Eryn Shewell, Bart Walker and Sean Carney - Bring It On Home To Me
TTITLE4=Sadie Johnson, Sean Carney, Innervision and Wendy DeWitt - Gimme A Kiss
TTITLE5=Layonee Holmes, Matt O'Ree Band and Sean Carney - Presence Of The Lord
TTITLE6=Innervision, Noah Wotherspoon, Lenny Fatigati and Brandon Pettitford - Hound Dog
TTITLE7=Matt O'Ree Band - Maybe I'm A Leo
TTITLE8=Sean Carney, Noah Wotherspoon, Matt O'Ree and Bart Walker - Oh Pretty Woman
TTITLE9=Wendy DeWitt, Noah Wotherspoon and Kirk Harwood - Never Be Too Much
TTITLE10=Tonky de la Pena, Matt O'Ree Band and Sean Carney - Trying To Run My Life
TTITLE11=Sadie Johnson, Bart Walker, Matt O'Ree and Wendy DeWitt - Purple Rain
TTITLE12=Innervision, Bart Walker, Lenny Fatigati and Brandon Pettitford - Christo Redemptor
TTITLE13=Eryn Shewell and Matt O'Ree Band - Hallelujah
EXTD=
EXTT0=
EXTT1=
EXTT2=
EXTT3=
EXTT4=
EXTT5=
EXTT6=
EXTT7=
EXTT8=
EXTT9=
EXTT10=
EXTT11=
EXTT12=
EXTT13=
PLAYORDER=
